<?xml version="1.0" encoding="UTF-8"?>
<svg xmlns="http://www.w3.org/2000/svg" xmlns:xlink="http://www.w3.org/1999/xlink" width="759.9pt" height="573.9pt" viewBox="0 0 759.9 573.9" version="1.1">
<defs>
<clipPath id="clip1">
  <path d="M 0 0 L 759.898438 0 L 759.898438 573.898438 L 0 573.898438 Z M 0 0 "/>
</clipPath>
<clipPath id="clip2">
  <path d="M 0 220 L 277 220 L 277 573.898438 L 0 573.898438 Z M 0 220 "/>
</clipPath>
</defs>
<g id="surface1">
<path style=" stroke:none;fill-rule:evenodd;fill:rgb(0%,58.396912%,85.546875%);fill-opacity:1;" d="M 353.355469 21.15625 C 555.058594 -0.0117188 730.515625 99.738281 745.253906 243.960938 C 759.984375 388.171875 608.414063 522.242188 406.714844 543.410156 C 205.003906 564.582031 29.546875 464.824219 14.816406 320.609375 C 0.0859375 176.390625 151.652344 42.320313 353.355469 21.15625 Z M 353.355469 21.15625 "/>
<g clip-path="url(#clip1)" clip-rule="nonzero">
<path style="fill:none;stroke-width:122.105;stroke-linecap:butt;stroke-linejoin:miter;stroke:rgb(13.719177%,12.156677%,12.547302%);stroke-opacity:1;stroke-miterlimit:4;" d="M 3533.554688 5527.4375 C 5550.585938 5739.117188 7305.15625 4741.617188 7452.539063 3299.390625 C 7599.84375 1857.28125 6084.140625 516.578125 4067.148438 304.898438 C 2050.039063 93.179688 295.46875 1090.757813 148.164063 2532.90625 C 0.859375 3975.09375 1516.523438 5315.796875 3533.554688 5527.4375 Z M 3533.554688 5527.4375 " transform="matrix(0.1,0,0,-0.1,0,573.9)"/>
</g>
<path style=" stroke:none;fill-rule:evenodd;fill:rgb(100%,100%,100%);fill-opacity:1;" d="M 449.890625 41.113281 C 269.253906 23.234375 133.03125 92.347656 73.46875 192.371094 C 72.472656 194.050781 169.796875 32.121094 449.890625 41.113281 Z M 449.890625 41.113281 "/>
<path style=" stroke:none;fill-rule:evenodd;fill:rgb(100%,100%,100%);fill-opacity:1;" d="M 200.183594 499.179688 C 393.039063 560.34375 557.671875 517.433594 645.878906 423.421875 C 647.355469 421.839844 503.585938 573.835938 200.183594 499.179688 Z M 200.183594 499.179688 "/>
<path style=" stroke:none;fill-rule:evenodd;fill:rgb(13.719177%,12.156677%,12.547302%);fill-opacity:1;" d="M 177.414063 347.714844 C 177.414063 347.714844 188.679688 321.367188 185.351563 316.589844 C 182.019531 311.800781 114.550781 296.308594 92.378906 355.773438 C 76.90625 397.253906 93.007813 418.054688 107.46875 420.320313 C 146.480469 426.429688 105.800781 451.085938 77.789063 455.214844 L 59.109375 497.753906 C 59.066406 497.847656 119.421875 506.871094 157.902344 465.839844 C 168.066406 455.003906 176.703125 434.765625 182.300781 416.984375 C 196.960938 364.671875 146.664063 370.820313 139.003906 365.140625 C 131.34375 359.464844 129.722656 357.101563 146.378906 351.128906 C 163.027344 345.144531 177.414063 347.714844 177.414063 347.714844 Z M 177.414063 347.714844 "/>
<g clip-path="url(#clip2)" clip-rule="nonzero">
<path style="fill:none;stroke-width:159.999;stroke-linecap:butt;stroke-linejoin:miter;stroke:rgb(13.719177%,12.156677%,12.547302%);stroke-opacity:1;stroke-miterlimit:4;" d="M 1774.140625 2261.851563 C 1774.140625 2261.851563 1886.796875 2525.328125 1853.515625 2573.101563 C 1820.195313 2620.992188 1145.507813 2775.914063 923.789063 2181.265625 C 769.0625 1766.460938 930.078125 1558.453125 1074.6875 1535.796875 C 1464.804688 1474.703125 1058.007813 1228.140625 777.890625 1186.851563 L 591.09375 761.460938 C 590.664063 760.523438 1194.21875 670.289063 1579.023438 1080.601563 C 1680.664063 1188.960938 1767.03125 1391.34375 1823.007813 1569.15625 C 1969.609375 2092.28125 1466.640625 2030.796875 1390.039063 2087.59375 C 1313.4375 2144.351563 1297.226563 2167.984375 1463.789063 2227.710938 C 1630.273438 2287.554688 1774.140625 2261.851563 1774.140625 2261.851563 Z M 1774.140625 2261.851563 " transform="matrix(0.1,0,0,-0.1,0,573.9)"/>
</g>
<path style=" stroke:none;fill-rule:evenodd;fill:rgb(50.193787%,50.976563%,52.146912%);fill-opacity:1;" d="M 166.421875 346.226563 C 166.421875 346.226563 178.140625 316.386719 175.253906 311.765625 C 172.367188 307.148438 134.742188 306.59375 94.429688 360.117188 C 72.550781 389.164063 86.527344 415.257813 99.140625 416.914063 C 137.710938 421.976563 122.585938 447.851563 72.527344 460.777344 L 56.078125 497.164063 C 56.078125 497.164063 149.566406 501.207031 172.367188 419.222656 C 185.359375 363.507813 135.085938 371.78125 128.445313 366.296875 C 121.804688 360.8125 125.777344 353.214844 140.214844 347.4375 C 154.644531 341.664063 166.421875 346.226563 166.421875 346.226563 Z M 166.421875 346.226563 "/>
<path style=" stroke:none;fill-rule:evenodd;fill:rgb(100%,100%,100%);fill-opacity:1;" d="M 163.960938 340.230469 C 163.960938 340.230469 174.378906 315.296875 171.492188 310.679688 C 168.605469 306.0625 114.101563 299.933594 90.378906 352.898438 C 73.113281 391.445313 85.003906 410.480469 97.617188 412.132813 C 136.183594 417.195313 126.214844 439.84375 76.15625 452.773438 L 58.914063 490.808594 C 58.914063 490.808594 145.515625 493.980469 168.320313 412.003906 C 181.019531 361.484375 133.679688 372.164063 127.039063 366.679688 C 120.398438 361.195313 123.003906 347.628906 137.429688 341.855469 C 151.863281 336.085938 163.960938 340.230469 163.960938 340.230469 Z M 163.960938 340.230469 "/>
<path style="fill-rule:evenodd;fill:rgb(13.719177%,12.156677%,12.547302%);fill-opacity:1;stroke-width:159.999;stroke-linecap:butt;stroke-linejoin:miter;stroke:rgb(13.719177%,12.156677%,12.547302%);stroke-opacity:1;stroke-miterlimit:4;" d="M 2897.539063 2831.460938 C 3176.289063 2678.765625 3225.78125 2203.6875 3008.203125 1770.289063 C 2790.664063 1336.890625 2388.398438 1109.351563 2109.6875 1262.085938 C 1831.015625 1414.78125 1781.484375 1889.9375 1999.023438 2323.296875 C 2216.601563 2756.65625 2618.867188 2984.195313 2897.539063 2831.460938 Z M 2665.507813 2530.210938 C 2733.28125 2437.945313 2704.53125 2147.28125 2626.210938 1904.664063 C 2547.890625 1662.007813 2429.414063 1540.09375 2361.601563 1632.359375 C 2293.828125 1724.664063 2302.34375 1996.1875 2380.703125 2238.84375 C 2459.023438 2481.460938 2597.695313 2622.515625 2665.507813 2530.210938 Z M 2665.507813 2530.210938 " transform="matrix(0.1,0,0,-0.1,0,573.9)"/>
<path style=" stroke:none;fill-rule:evenodd;fill:rgb(50.193787%,50.976563%,52.146912%);fill-opacity:1;" d="M 282.828125 288.90625 C 310.695313 303.925781 315.648438 350.65625 293.894531 393.285156 C 272.136719 435.914063 231.910156 458.296875 204.046875 443.273438 C 176.171875 428.253906 171.21875 381.519531 192.976563 338.890625 C 214.730469 296.265625 254.964844 273.882813 282.828125 288.90625 Z M 257.601563 320.414063 C 264.378906 329.492188 263.527344 356.199219 255.695313 380.070313 C 247.859375 403.9375 236.015625 415.929688 229.234375 406.855469 C 222.453125 397.777344 223.308594 371.066406 231.140625 347.199219 C 238.972656 323.328125 250.820313 311.339844 257.601563 320.414063 Z M 257.601563 320.414063 "/>
<path style=" stroke:none;fill-rule:evenodd;fill:rgb(100%,100%,100%);fill-opacity:1;" d="M 282.660156 287.753906 C 306.246094 307.546875 309.007813 344.589844 287.253906 387.214844 C 265.496094 429.84375 225.269531 452.222656 197.402344 437.203125 C 169.535156 422.183594 172.660156 374.164063 194.421875 331.535156 C 216.171875 288.90625 259.074219 267.953125 282.660156 287.753906 Z M 257.601563 317.664063 C 264.378906 326.742188 265.574219 343.886719 257.738281 367.757813 C 249.90625 391.628906 233.140625 409.617188 226.363281 400.539063 C 219.585938 391.464844 216.671875 365.003906 224.503906 341.128906 C 232.339844 317.257813 250.820313 308.589844 257.601563 317.664063 Z M 257.601563 317.664063 "/>
<path style="fill:none;stroke-width:40;stroke-linecap:butt;stroke-linejoin:miter;stroke:rgb(13.719177%,12.156677%,12.547302%);stroke-opacity:1;stroke-miterlimit:4;" d="M 2808.515625 2891.03125 C 3086.835938 2731.109375 3156.210938 2260.09375 2938.945313 1806.148438 C 2721.640625 1352.203125 2300.625 1118.21875 2022.304688 1278.101563 C 1743.945313 1438.101563 1693.789063 1904.78125 1911.09375 2358.765625 C 2128.398438 2812.710938 2530.15625 3051.03125 2808.515625 2891.03125 Z M 2567.382813 2545.015625 C 2643.789063 2517.632813 2645.546875 2281.382813 2567.304688 2027.203125 C 2489.0625 1772.984375 2383.554688 1690.71875 2294.921875 1711.109375 C 2206.289063 1731.539063 2226.484375 1991.851563 2304.726563 2246.03125 C 2382.96875 2500.210938 2491.015625 2572.398438 2567.382813 2545.015625 Z M 2567.382813 2545.015625 " transform="matrix(0.1,0,0,-0.1,0,573.9)"/>
<path style="fill-rule:evenodd;fill:rgb(0%,0%,0%);fill-opacity:1;stroke-width:159.999;stroke-linecap:butt;stroke-linejoin:miter;stroke:rgb(0%,0%,0%);stroke-opacity:1;stroke-miterlimit:4;" d="M 4053.203125 2774.273438 C 4074.84375 2774.273438 4109.765625 2917.476563 4080.898438 3032.867188 C 4052.03125 3148.21875 3260.46875 3179.3125 3198.242188 2286.460938 C 3140.46875 1457.984375 3490.898438 1519.585938 4108.28125 1760.367188 C 4108.28125 1760.367188 4039.414063 2055.171875 3998.203125 2033.648438 C 3695.234375 1875.523438 3538.085938 1947.476563 3599.960938 2365.132813 C 3641.835938 2647.710938 3726.484375 2857.203125 4053.203125 2774.273438 Z M 4053.203125 2774.273438 " transform="matrix(0.1,0,0,-0.1,0,573.9)"/>
<path style=" stroke:none;fill-rule:evenodd;fill:rgb(50.193787%,50.976563%,52.146912%);fill-opacity:1;" d="M 396.199219 294.847656 C 398.363281 294.847656 407.421875 278.601563 404.535156 267.234375 C 401.648438 255.863281 317.503906 254.9375 311.28125 342.914063 C 305.507813 424.554688 355.84375 417.617188 401.710938 394.757813 C 401.710938 394.757813 395.960938 366.003906 391.835938 368.121094 C 361.539063 383.703125 347.378906 375.171875 353.5625 334.015625 C 357.753906 306.171875 363.527344 286.675781 396.199219 294.847656 Z M 396.199219 294.847656 "/>
<path style=" stroke:none;fill-rule:evenodd;fill:rgb(100%,100%,100%);fill-opacity:1;" d="M 388.929688 293.421875 C 390.933594 293.421875 399.59375 276.214844 396.921875 265.140625 C 394.253906 254.074219 318.527344 260.296875 312.773438 345.960938 C 307.429688 425.449219 350.496094 413.378906 392.929688 391.113281 C 392.929688 391.113281 388.605469 367.296875 384.789063 369.363281 C 356.757813 384.535156 342.660156 372.046875 348.382813 331.96875 C 352.257813 304.859375 358.703125 285.460938 388.929688 293.421875 Z M 388.929688 293.421875 "/>
<path style="fill:none;stroke-width:31.377;stroke-linecap:butt;stroke-linejoin:miter;stroke:rgb(13.719177%,12.156677%,12.547302%);stroke-opacity:1;stroke-miterlimit:4;" d="M 3971.367188 2750.09375 C 3993.398438 2750.09375 4105.507813 2968.804688 4076.210938 3086.460938 C 4046.875 3204.15625 3186.640625 3213.726563 3123.476563 2303.101563 C 3064.84375 1458.023438 3581.796875 1529.78125 4047.539063 1766.460938 C 4047.539063 1766.460938 3974.84375 2085.640625 3929.921875 2071.03125 C 3581.953125 1957.789063 3495.859375 1969.195313 3558.632813 2395.210938 C 3601.171875 2683.414063 3639.648438 2834.703125 3971.367188 2750.09375 Z M 3971.367188 2750.09375 " transform="matrix(0.1,0,0,-0.1,0,573.9)"/>
<path style="fill-rule:evenodd;fill:rgb(0%,0%,0%);fill-opacity:1;stroke-width:130.326;stroke-linecap:round;stroke-linejoin:round;stroke:rgb(0%,0%,0%);stroke-opacity:1;stroke-miterlimit:4;" d="M 4241.015625 3143.648438 L 4152.460938 1719.742188 L 4635.976563 1786.265625 L 4709.140625 2901.695313 C 4710.585938 2923.960938 4734.375 3135.992188 4550.3125 3163.414063 Z M 4241.015625 3143.648438 " transform="matrix(0.1,0,0,-0.1,0,573.9)"/>
<path style=" stroke:none;fill-rule:evenodd;fill:rgb(50.193787%,50.976563%,52.146912%);fill-opacity:1;" d="M 420.910156 254.851563 L 412.539063 394.996094 L 458.234375 388.453125 L 465.148438 278.664063 C 465.289063 276.472656 467.535156 255.605469 450.140625 252.902344 Z M 420.910156 254.851563 "/>
<path style=" stroke:none;fill-rule:evenodd;fill:rgb(100%,100%,100%);fill-opacity:1;" d="M 419.386719 253.617188 L 413.15625 384.722656 L 450.949219 380.714844 L 457.867188 275.351563 C 458.003906 273.246094 461.296875 254.160156 443.902344 251.566406 Z M 419.386719 253.617188 "/>
<path style="fill:none;stroke-width:33.464;stroke-linecap:round;stroke-linejoin:round;stroke:rgb(0%,0%,0%);stroke-opacity:1;stroke-miterlimit:4;" d="M 4201.71875 3196.539063 L 4110.703125 1789.039063 L 4607.34375 1854.78125 L 4682.539063 2957.398438 C 4683.984375 2979.351563 4708.398438 3188.960938 4519.335938 3216.109375 Z M 4201.71875 3196.539063 " transform="matrix(0.1,0,0,-0.1,0,573.9)"/>
<path style="fill-rule:evenodd;fill:rgb(0%,0%,0%);fill-opacity:1;stroke-width:159.999;stroke-linecap:butt;stroke-linejoin:miter;stroke:rgb(0%,0%,0%);stroke-opacity:1;stroke-miterlimit:4;" d="M 2481.992188 4096.226563 C 2503.085938 4094.351563 2548.59375 4238.882813 2529.648438 4360.054688 C 2510.664063 4481.226563 1740.9375 4579.859375 1609.0625 3666.03125 C 1486.640625 2818.0625 1833.398438 2851.96875 2454.84375 3047.90625 C 2454.84375 3047.90625 2411.210938 3357.125 2369.257813 3338.453125 C 2061.09375 3201.1875 1913.554688 3288.492188 2007.226563 3713.140625 C 2070.625 4000.5625 2169.882813 4209.078125 2481.992188 4096.226563 Z M 2481.992188 4096.226563 " transform="matrix(0.1,0,0,-0.1,0,573.9)"/>
<path style=" stroke:none;fill-rule:evenodd;fill:rgb(50.193787%,50.976563%,52.146912%);fill-opacity:1;" d="M 239.429688 161.839844 C 241.546875 162.023438 251.675781 146.058594 249.765625 134.113281 C 247.855469 122.171875 165.84375 114.132813 152.757813 204.171875 C 140.613281 287.722656 190.269531 284.820313 236.839844 265.144531 C 236.839844 265.144531 233.519531 235.058594 229.328125 236.898438 C 198.53125 250.386719 185.394531 240.410156 194.714844 198.566406 C 201.019531 170.257813 208.214844 150.675781 239.429688 161.839844 Z M 239.429688 161.839844 "/>
<path style=" stroke:none;fill-rule:evenodd;fill:rgb(100%,100%,100%);fill-opacity:1;" d="M 232.453125 159.753906 C 234.410156 159.921875 244.226563 142.941406 242.503906 131.320313 C 240.785156 119.703125 166.421875 119.734375 153.96875 207.425781 C 142.421875 288.804688 185.390625 280.003906 228.5625 260.660156 C 228.5625 260.660156 226.242188 235.777344 222.355469 237.585938 C 193.800781 250.839844 181.046875 236.796875 189.828125 196.027344 C 195.765625 168.445313 203.601563 149.019531 232.453125 159.753906 Z M 232.453125 159.753906 "/>
<path style="fill:none;stroke-width:32.299;stroke-linecap:butt;stroke-linejoin:miter;stroke:rgb(13.719177%,12.156677%,12.547302%);stroke-opacity:1;stroke-miterlimit:4;" d="M 2400.234375 4078.21875 C 2421.71875 4076.34375 2548.515625 4292.046875 2529.335938 4415.601563 C 2510.117188 4539.234375 1671.71875 4621.460938 1537.460938 3689.390625 C 1412.851563 2824.46875 1922.890625 2854.859375 2396.054688 3059.273438 C 2396.054688 3059.273438 2350.625 3393.960938 2305.625 3382.710938 C 1957.148438 3295.40625 1874.0625 3314.351563 1969.296875 3747.632813 C 2033.789063 4040.71875 2083.398438 4193.21875 2400.234375 4078.21875 Z M 2400.234375 4078.21875 " transform="matrix(0.1,0,0,-0.1,0,573.9)"/>
<path style="fill-rule:evenodd;fill:rgb(0%,0%,0%);fill-opacity:1;stroke-width:29.62;stroke-linecap:round;stroke-linejoin:round;stroke:rgb(0%,0%,0%);stroke-opacity:1;stroke-miterlimit:4;" d="M 5430.46875 2414.898438 L 5155.625 2403.765625 L 5296.601563 2821.617188 Z M 5430.46875 2414.898438 " transform="matrix(0.1,0,0,-0.1,0,573.9)"/>
<path style="fill-rule:evenodd;fill:rgb(0%,0%,0%);fill-opacity:1;stroke-width:32.949;stroke-linecap:round;stroke-linejoin:round;stroke:rgb(0%,0%,0%);stroke-opacity:1;stroke-miterlimit:4;" d="M 4587.8125 1744.46875 L 5148.867188 3255.601563 L 5631.875 3274.78125 L 6136.601563 1829.742188 L 5524.648438 1814.898438 L 5433.789063 2026.03125 L 5149.921875 2065.484375 L 5103.398438 1802.046875 Z M 4587.8125 1744.46875 " transform="matrix(0.1,0,0,-0.1,0,573.9)"/>
<path style=" stroke:none;fill-rule:evenodd;fill:rgb(50.193787%,50.976563%,52.146912%);fill-opacity:1;" d="M 460.683594 390.785156 L 513.476563 248.398438 L 552.445313 246.738281 L 602.382813 380.609375 L 547.195313 383.367188 L 539.554688 359.226563 L 499.53125 358.480469 L 505.679688 361.628906 L 500.410156 387.449219 Z M 543.429688 331.96875 L 515.71875 333.121094 L 529.933594 289.753906 Z M 543.429688 331.96875 "/>
<path style=" stroke:none;fill-rule:evenodd;fill:rgb(100%,100%,100%);fill-opacity:1;" d="M 463.230469 383.925781 L 513.382813 248.777344 L 544.929688 247.214844 L 592.613281 375.03125 L 545.234375 375.617188 L 538.007813 353.5625 L 483.558594 354.785156 L 500.664063 360.914063 L 496.65625 380.601563 Z M 537.796875 332.347656 L 510.085938 333.503906 L 524.300781 290.128906 Z M 537.796875 332.347656 "/>
<path style="fill:none;stroke-width:30.791;stroke-linecap:round;stroke-linejoin:round;stroke:rgb(0%,0%,0%);stroke-opacity:1;stroke-miterlimit:4;" d="M 4586.523438 1804.859375 L 5117.304688 3254.78125 L 5527.304688 3266.460938 L 6064.140625 1912.632813 L 5467.265625 1904.234375 L 5380.390625 2147.007813 L 5099.140625 2131.460938 L 5030.039063 1837.007813 Z M 4586.523438 1804.859375 " transform="matrix(0.1,0,0,-0.1,0,573.9)"/>
<path style=" stroke:none;fill-rule:evenodd;fill:rgb(0%,0%,0%);fill-opacity:1;" d="M 608.425781 242.160156 L 604.0625 388.527344 L 706.972656 385.433594 L 706.664063 339.613281 L 669.839844 341.117188 C 667.097656 341.226563 666.15625 345.511719 666.574219 334.570313 C 666.992188 323.628906 668.023438 273.480469 666.882813 261.144531 C 665.738281 248.808594 655.089844 241.390625 638.988281 240.886719 C 622.886719 240.386719 608.425781 242.160156 608.425781 242.160156 Z M 608.425781 242.160156 "/>
<path style=" stroke:none;fill-rule:evenodd;fill:rgb(50.193787%,50.976563%,52.146912%);fill-opacity:1;" d="M 613.316406 242.503906 L 607.566406 377.496094 L 696.300781 374.601563 L 696.179688 336.234375 L 643.503906 345.996094 C 641.230469 346.421875 654.296875 342.695313 654.648438 332.210938 C 655.003906 321.722656 655.871094 256.210938 655.878906 255.453125 C 655.890625 254.695313 651.304688 241.839844 637.78125 241.351563 C 624.253906 240.871094 613.316406 242.503906 613.316406 242.503906 Z M 613.316406 242.503906 "/>
<path style=" stroke:none;fill-rule:evenodd;fill:rgb(100%,100%,100%);fill-opacity:1;" d="M 609.867188 242.089844 L 606.285156 371.621094 L 688.21875 368.253906 L 687.449219 337.160156 L 635.414063 339.648438 C 633.113281 339.757813 646.214844 336.34375 646.566406 325.859375 C 646.921875 315.371094 646.703125 247.703125 646.714844 246.945313 C 646.722656 246.1875 643.773438 241.578125 629.554688 241.296875 C 615.339844 241.011719 609.867188 242.089844 609.867188 242.089844 Z M 609.867188 242.089844 "/>
<path style="fill:none;stroke-width:40;stroke-linecap:butt;stroke-linejoin:miter;stroke:rgb(0%,0%,0%);stroke-opacity:1;stroke-miterlimit:4;" d="M 6100.976563 3321.304688 L 6061.210938 1963.453125 L 6970.3125 1998.804688 L 6961.796875 2376.65625 L 6492.03125 2362.710938 C 6371.601563 2359.15625 6541.914063 2364.195313 6547.265625 2460.171875 C 6552.65625 2556.1875 6545.039063 3242.242188 6545.117188 3250.171875 C 6545.234375 3258.101563 6477.148438 3326.617188 6319.414063 3329.625 C 6161.640625 3332.59375 6100.976563 3321.304688 6100.976563 3321.304688 Z M 6100.976563 3321.304688 " transform="matrix(0.1,0,0,-0.1,0,573.9)"/>
<path style="fill-rule:evenodd;fill:rgb(0%,0%,0%);fill-opacity:1;stroke-width:2;stroke-linecap:butt;stroke-linejoin:miter;stroke:rgb(0%,0%,0%);stroke-opacity:1;stroke-miterlimit:4;" d="M 6552.148438 2418.414063 C 6579.453125 2418.414063 6601.601563 2405.132813 6601.601563 2388.804688 C 6601.601563 2372.476563 6579.453125 2359.234375 6552.148438 2359.234375 C 6524.84375 2359.234375 6502.734375 2372.476563 6502.734375 2388.804688 C 6502.734375 2405.132813 6524.84375 2418.414063 6552.148438 2418.414063 Z M 6552.148438 2418.414063 " transform="matrix(0.1,0,0,-0.1,0,573.9)"/>
<path style=" stroke:none;fill-rule:evenodd;fill:rgb(0%,0%,0%);fill-opacity:1;" d="M 256.796875 120.460938 L 251.304688 274.859375 L 337.394531 264.382813 L 337.71875 216.164063 L 306.902344 220.335938 C 304.609375 220.640625 303.765625 225.214844 304.253906 213.671875 C 304.742188 202.121094 306.238281 149.253906 305.4375 136.339844 C 304.636719 123.433594 295.824219 116.371094 282.367188 116.972656 C 268.910156 117.570313 256.796875 120.460938 256.796875 120.460938 Z M 256.796875 120.460938 "/>
<path style=" stroke:none;fill-rule:evenodd;fill:rgb(50.193787%,50.976563%,52.146912%);fill-opacity:1;" d="M 260.882813 120.472656 L 254.371094 263.003906 L 328.609375 253.726563 L 328.992188 213.34375 L 284.816406 227.316406 C 282.914063 227.921875 293.886719 223.085938 294.316406 212.019531 C 294.742188 200.953125 296.296875 131.921875 296.308594 131.117188 C 296.328125 130.320313 292.65625 117.105469 281.351563 117.546875 C 270.046875 117.984375 260.882813 120.472656 260.882813 120.472656 Z M 260.882813 120.472656 "/>
<path style=" stroke:none;fill-rule:evenodd;fill:rgb(100%,100%,100%);fill-opacity:1;" d="M 258.003906 120.277344 L 253.378906 256.90625 L 321.929688 247.609375 L 321.679688 214.933594 L 278.136719 221.199219 C 276.210938 221.476563 287.214844 216.964844 287.636719 205.898438 C 288.0625 194.839844 288.730469 123.605469 288.753906 122.804688 C 288.769531 122.007813 286.359375 117.363281 274.472656 118.0625 C 262.589844 118.761719 258.003906 120.277344 258.003906 120.277344 Z M 258.003906 120.277344 "/>
<path style="fill:none;stroke-width:40;stroke-linecap:butt;stroke-linejoin:miter;stroke:rgb(0%,0%,0%);stroke-opacity:1;stroke-miterlimit:4;" d="M 2581.953125 4539.742188 L 2531.640625 3107.359375 L 3292.265625 3208.335938 L 3289.882813 3605.5625 L 2896.914063 3557.945313 C 2796.171875 3545.71875 2938.632813 3562.984375 2944.335938 3664.390625 C 2950.039063 3765.875 2952.304688 4487.671875 2952.460938 4496.03125 C 2952.65625 4504.351563 2896.640625 4571.734375 2764.726563 4563.804688 C 2632.851563 4555.875 2581.953125 4539.742188 2581.953125 4539.742188 Z M 2581.953125 4539.742188 " transform="matrix(0.1,0,0,-0.1,0,573.9)"/>
<path style="fill-rule:evenodd;fill:rgb(0%,0%,0%);fill-opacity:1;stroke-width:2;stroke-linecap:butt;stroke-linejoin:miter;stroke:rgb(0%,0%,0%);stroke-opacity:1;stroke-miterlimit:4;" d="M 2947.890625 3620.757813 C 2970.703125 3622.671875 2989.0625 3610.289063 2988.867188 3593.101563 C 2988.632813 3575.875 2969.960938 3560.367188 2947.148438 3558.453125 C 2924.296875 3556.539063 2905.976563 3568.960938 2906.171875 3586.148438 C 2906.367188 3603.335938 2925.078125 3618.84375 2947.890625 3620.757813 Z M 2947.890625 3620.757813 " transform="matrix(0.1,0,0,-0.1,0,573.9)"/>
<path style="fill-rule:evenodd;fill:rgb(0%,0%,0%);fill-opacity:1;stroke-width:126.264;stroke-linecap:round;stroke-linejoin:round;stroke:rgb(0%,0%,0%);stroke-opacity:1;stroke-miterlimit:4;" d="M 3423.046875 4649.859375 C 3423.046875 4649.859375 3373.203125 3872.28125 3379.140625 3582.4375 C 3344.335938 3240.953125 3886.09375 3107.398438 4203.4375 3324.625 C 4316.210938 3401.851563 4438.671875 3553.453125 4443.554688 3704.039063 L 4476.71875 4724.039063 L 4078.242188 4702.28125 L 4038.398438 3747.125 C 4031.5625 3582.828125 3805.039063 3582.125 3810.351563 3725.210938 L 3839.21875 4503.960938 C 3839.21875 4503.960938 3849.609375 4666.34375 3659.492188 4658.960938 Z M 3423.046875 4649.859375 " transform="matrix(0.1,0,0,-0.1,0,573.9)"/>
<path style=" stroke:none;fill-rule:evenodd;fill:rgb(50.193787%,50.976563%,52.146912%);fill-opacity:1;" d="M 338.601563 108.128906 C 338.601563 108.128906 333.558594 186.039063 334.136719 214.011719 C 333.847656 247.632813 411.183594 264.988281 437.902344 204.191406 C 439.921875 183.941406 441.386719 98.09375 441.386719 98.09375 L 402.546875 100.921875 L 398.445313 198.117188 C 397.777344 213.972656 375.679688 214.046875 376.199219 200.234375 L 379.015625 125.078125 C 379.015625 125.078125 381.09375 106.121094 362.5625 106.992188 Z M 338.601563 108.128906 "/>
<path style=" stroke:none;fill-rule:evenodd;fill:rgb(100%,100%,100%);fill-opacity:1;" d="M 336.738281 108.242188 C 336.738281 108.242188 331.695313 181.171875 332.273438 207.355469 C 331.984375 238.828125 403.777344 255.070313 430.496094 198.164063 C 432.511719 179.210938 433.980469 98.851563 433.980469 98.851563 L 402.796875 100.976563 L 398.589844 194.785156 C 397.597656 216.785156 370.46875 211.300781 370.671875 196.011719 L 371.609375 124.109375 C 371.609375 124.109375 373.675781 106.121094 355.15625 107.183594 Z M 336.738281 108.242188 "/>
<path style="fill:none;stroke-width:31.592;stroke-linecap:round;stroke-linejoin:round;stroke:rgb(0%,0%,0%);stroke-opacity:1;stroke-miterlimit:4;" d="M 3372.421875 4666.539063 C 3372.421875 4666.539063 3320.664063 3856.421875 3326.601563 3565.5625 C 3323.632813 3215.953125 4117.109375 3035.523438 4391.289063 3667.671875 C 4411.914063 3878.21875 4426.953125 4770.796875 4426.953125 4770.796875 L 4028.4375 4741.460938 L 3988.046875 3770.5625 C 3981.171875 3605.640625 3794.882813 3639.078125 3797.96875 3698.53125 L 3839.21875 4503.960938 C 3839.21875 4503.960938 3808.398438 4687.359375 3618.242188 4678.296875 Z M 3372.421875 4666.539063 " transform="matrix(0.1,0,0,-0.1,0,573.9)"/>
<path style="fill-rule:evenodd;fill:rgb(0%,0%,0%);fill-opacity:1;stroke-width:123.162;stroke-linecap:round;stroke-linejoin:round;stroke:rgb(0%,0%,0%);stroke-opacity:1;stroke-miterlimit:4;" d="M 4658.554688 4639.234375 L 4594.335938 3388.492188 L 5340.117188 3419.351563 C 5654.804688 3432.398438 5878.164063 4029.078125 5433.632813 4164.742188 C 5866.640625 4361.03125 5608.398438 4785.601563 5195.625 4779.78125 C 4782.851563 4774.039063 4689.375 4694.742188 4658.554688 4639.234375 Z M 4967.148438 3980.914063 L 5015.351563 3937.632813 L 5019.101563 3625.953125 C 5019.257813 3615.210938 5325.078125 3595.601563 5313.554688 3815.015625 C 5303.789063 4000.328125 5119.492188 3986.34375 5062.851563 3985.328125 C 5037.695313 3984.859375 4967.148438 3980.914063 4967.148438 3980.914063 Z M 5003.554688 4523.765625 L 5022.304688 4184.585938 C 5022.890625 4173.84375 5318.164063 4161.460938 5306.640625 4380.875 C 5295.078125 4600.210938 5003.554688 4523.765625 5003.554688 4523.765625 Z M 5003.554688 4523.765625 " transform="matrix(0.1,0,0,-0.1,0,573.9)"/>
<path style=" stroke:none;fill-rule:evenodd;fill:rgb(50.193787%,50.976563%,52.146912%);fill-opacity:1;" d="M 455.242188 104.121094 L 454.953125 230.265625 C 454.953125 230.265625 488.109375 229.621094 523.847656 228.992188 C 559.589844 228.367188 586.34375 170.222656 537.359375 155.214844 C 580.578125 135.589844 556.390625 91.074219 509.136719 91.648438 C 461.882813 92.226563 458.316406 98.570313 455.242188 104.121094 Z M 488.058594 172.40625 L 494.382813 175.089844 L 494.6875 205.449219 C 494.699219 206.527344 521.773438 208.480469 520.621094 186.546875 C 519.644531 168.011719 501.605469 170.800781 496.027344 172.109375 C 495.003906 172.351563 488.058594 172.40625 488.058594 172.40625 Z M 493.714844 115.960938 L 493.996094 148.863281 C 494.007813 149.9375 521.085938 151.894531 519.929688 129.960938 C 518.777344 108.019531 493.714844 115.960938 493.714844 115.960938 Z M 493.714844 115.960938 "/>
<path style=" stroke:none;fill-rule:evenodd;fill:rgb(100%,100%,100%);fill-opacity:1;" d="M 455.238281 104.984375 L 454.964844 226.636719 C 454.964844 226.636719 479.496094 226.160156 515.300781 225.535156 C 551.105469 224.90625 577.046875 168.210938 527.972656 153.195313 C 571.269531 133.566406 548.757813 90.914063 501.421875 91.492188 C 454.078125 92.070313 458.320313 99.4375 455.238281 104.984375 Z M 479.445313 168.945313 L 485.78125 171.628906 L 486.089844 201.992188 C 486.097656 203.066406 513.222656 205.019531 512.066406 183.085938 C 511.089844 164.550781 493.019531 167.339844 487.429688 168.648438 C 486.40625 168.890625 479.445313 168.945313 479.445313 168.945313 Z M 485.113281 113.359375 L 485.394531 145.402344 C 485.40625 146.476563 511.519531 148.289063 511.378906 126.496094 C 511.230469 104.703125 485.113281 113.359375 485.113281 113.359375 Z M 485.113281 113.359375 "/>
<path style="fill:none;stroke-width:32.269;stroke-linecap:butt;stroke-linejoin:miter;stroke:rgb(0%,0%,0%);stroke-opacity:1;stroke-miterlimit:4;" d="M 4552.421875 4697.789063 L 4549.53125 3436.34375 C 4549.53125 3436.34375 4851.757813 3431.382813 5226.992188 3437.710938 C 5602.226563 3444.039063 5887.109375 4042.789063 5372.773438 4194.390625 C 5826.5625 4392.671875 5568.671875 4830.757813 5072.539063 4824.9375 C 4576.40625 4819.117188 4584.6875 4753.84375 4552.421875 4697.789063 Z M 4923.242188 4010.328125 L 4965.078125 3990.640625 L 4961.640625 3737.945313 C 4961.523438 3727.125 5107.578125 3746.539063 5106.953125 3911.773438 C 5106.71875 3990.210938 5061.40625 4038.53125 5002.851563 4025.328125 C 4992.148438 4022.90625 4923.242188 4010.328125 4923.242188 4010.328125 Z M 4939.648438 4589.273438 L 4939.53125 4302.828125 C 4939.53125 4296.34375 5118.398438 4300.523438 5113.789063 4468.960938 C 5109.140625 4637.476563 4939.648438 4589.273438 4939.648438 4589.273438 Z M 4939.648438 4589.273438 " transform="matrix(0.1,0,0,-0.1,0,573.9)"/>
</g>
</svg>
